<svg width="40" height="41" viewBox="0 0 40 41" fill="none" xmlns="http://www.w3.org/2000/svg">
<circle cx="20" cy="20.7017" r="20" fill="#00839B"/>
<path fill-rule="evenodd" clip-rule="evenodd" d="M16.0312 17.7763H13.0532V27.3674H16.0312V17.7763ZM16.2749 14.7385C16.2749 13.7849 15.5 13.0088 14.5479 13.0088C13.5902 13.0088 12.8208 13.7849 12.8208 14.7385C12.8208 15.6921 13.5902 16.4682 14.5479 16.4682C15.5 16.4682 16.2749 15.6921 16.2749 14.7385ZM20.7531 17.7767H17.9078V27.3678H20.8804V22.6221C20.8804 21.3747 21.1129 20.1606 22.6628 20.1606C24.1906 20.1606 24.2072 21.5909 24.2072 22.7053V27.3678H27.1797V22.1121C27.1797 19.5286 26.6207 17.5438 23.6094 17.5438C22.1591 17.5438 21.1904 18.3366 20.7918 19.0906H20.7531V17.7767Z" fill="white"/>
</svg>
