<svg width="40" height="41" viewBox="0 0 40 41" fill="none" xmlns="http://www.w3.org/2000/svg">
<circle cx="20" cy="20.7017" r="20" fill="#00839B"/>
<path d="M28.2332 15.8258C27.2186 15.8258 26.2825 15.4897 25.5308 14.9227C24.6686 14.2727 24.0492 13.3192 23.8304 12.2202C23.7763 11.9487 23.7471 11.6685 23.7443 11.3813H20.846V19.3008L20.8426 23.6386C20.8426 24.7984 20.0874 25.7817 19.0405 26.1275C18.7367 26.2279 18.4085 26.2754 18.0669 26.2567C17.6308 26.2327 17.2221 26.1011 16.8669 25.8886C16.111 25.4366 15.5985 24.6164 15.5846 23.6782C15.5627 22.2119 16.7481 21.0164 18.2134 21.0164C18.5026 21.0164 18.7804 21.0636 19.0405 21.1494V18.9848V18.2067C18.7662 18.1661 18.487 18.1449 18.2047 18.1449C16.6009 18.1449 15.1009 18.8116 14.0287 20.0126C13.2183 20.9202 12.7322 22.0782 12.6572 23.2925C12.5589 24.8876 13.1426 26.4039 14.2745 27.5227C14.4408 27.6869 14.6155 27.8393 14.7981 27.98C15.7686 28.7268 16.9551 29.1317 18.2047 29.1317C18.487 29.1317 18.7662 29.1109 19.0405 29.0702C20.2078 28.8973 21.2849 28.3629 22.1349 27.5227C23.1794 26.4904 23.7565 25.1199 23.7627 23.6612L23.7478 17.1834C24.246 17.5678 24.7908 17.8859 25.3756 18.1327C26.2849 18.5164 27.2492 18.7109 28.2415 18.7105V16.606V15.8251C28.2422 15.8258 28.2339 15.8258 28.2332 15.8258Z" fill="white"/>
</svg>
