<svg width="40" height="41" viewBox="0 0 40 41" fill="none" xmlns="http://www.w3.org/2000/svg">
<circle cx="20" cy="20.7017" r="20" fill="#00839B"/>
<path fill-rule="evenodd" clip-rule="evenodd" d="M28.3077 14.5984C28.8488 15.2184 29.0398 16.6217 29.0398 16.6217C29.0398 16.6217 29.2308 18.2861 29.2308 19.9504V21.4842C29.2308 23.1159 29.0398 24.7802 29.0398 24.7802C29.0398 24.7802 28.8489 26.1835 28.3077 26.8035C27.6418 27.5483 26.8895 27.6144 26.5163 27.6471C26.497 27.6488 26.4788 27.6504 26.4616 27.652C23.8834 27.8805 20.0001 27.8805 20.0001 27.8805C20.0001 27.8805 15.1937 27.8478 13.7295 27.6847C13.6517 27.6663 13.5559 27.6525 13.4469 27.6368C12.9765 27.569 12.261 27.466 11.6924 26.8036C11.1513 26.1835 10.9603 24.7803 10.9603 24.7803C10.9603 24.7803 10.7693 23.1486 10.7693 21.4842V19.9504C10.7693 18.2861 10.9603 16.6217 10.9603 16.6217C10.9603 16.6217 11.1194 15.2185 11.6924 14.5984C12.3583 13.8536 13.1107 13.7876 13.4839 13.7548C13.5031 13.7531 13.5214 13.7515 13.5385 13.7499C16.1168 13.5541 20.0001 13.5215 20.0001 13.5215C20.0001 13.5215 23.8834 13.5541 26.4616 13.7499C26.4882 13.7524 26.5173 13.7547 26.5488 13.7571C26.932 13.7872 27.6606 13.8445 28.3077 14.5984ZM17.7718 24.4868V17.4052L23.8195 21.0276L17.7718 24.4868Z" fill="white"/>
</svg>
