<svg width="40" height="41" viewBox="0 0 40 41" fill="none" xmlns="http://www.w3.org/2000/svg">
<circle cx="20" cy="20.7017" r="20" fill="#00839B"/>
<path fill-rule="evenodd" clip-rule="evenodd" d="M23.5239 11.9839H16.4765C13.6124 11.9839 11.2822 14.314 11.2822 17.1781V24.2255C11.2822 27.0897 13.6124 29.4198 16.4765 29.4198H23.5239C26.388 29.4198 28.7181 27.0897 28.7181 24.2255V17.1781C28.7181 14.314 26.388 11.9839 23.5239 11.9839ZM26.9641 24.2251C26.9641 26.1251 25.4239 27.6653 23.5239 27.6653H16.4765C14.5766 27.6653 13.0363 26.1251 13.0363 24.2251V17.1777C13.0363 15.2778 14.5766 13.7375 16.4765 13.7375H23.5239C25.4239 13.7375 26.9641 15.2778 26.9641 17.1777V24.2251ZM15.4907 20.7018C15.4907 18.2153 17.5137 16.1923 20.0002 16.1923C22.4868 16.1923 24.5098 18.2153 24.5098 20.7018C24.5098 23.1884 22.4868 25.2114 20.0002 25.2114C17.5137 25.2114 15.4907 23.1884 15.4907 20.7018ZM20.0003 23.4578C18.4785 23.4578 17.2448 22.2241 17.2448 20.7023C17.2448 19.1804 18.4785 17.9468 20.0003 17.9468C21.5222 17.9468 22.7558 19.1804 22.7558 20.7023C22.7558 22.2241 21.5221 23.4578 20.0003 23.4578ZM24.5185 17.3072C25.1153 17.3072 25.5991 16.8234 25.5991 16.2266C25.5991 15.6298 25.1153 15.146 24.5185 15.146C23.9217 15.146 23.4379 15.6298 23.4379 16.2266C23.4379 16.8234 23.9217 17.3072 24.5185 17.3072Z" fill="white"/>
</svg>
