<svg width="140" height="61" viewBox="0 0 140 61" fill="none" xmlns="http://www.w3.org/2000/svg">
<path d="M21.2197 4.39863C25.8428 8.9597 25.8982 16.3983 21.3404 21.0247C16.7826 25.651 9.33747 25.7064 4.71115 21.1486C0.0913527 16.5908 0 0.000687865 0 0.000687865C0 0.000687865 16.5901 -0.159177 21.2165 4.39536" fill="#8FD1E1"/>
<path d="M5.83989 29.1843C9.69298 25.0833 16.1333 24.8778 20.2343 28.7243C24.3354 32.5741 24.5376 39.0177 20.6943 43.122C16.8445 47.2198 3.09607 47.8005 2.86116 47.4188C2.62952 47.0338 1.99006 33.2854 5.83989 29.1843Z" fill="#2BA4B9"/>
<path d="M21.1382 48.1855C21.2817 43.4254 25.2425 39.6833 30.0026 39.8236C34.7594 39.9638 38.5016 43.9311 38.3645 48.6879C38.221 53.4415 30.4626 61.1542 29.6013 60.916C28.7367 60.6746 20.9979 52.9423 21.1382 48.1855Z" fill="#B7E1ED"/>
<path d="M42.2013 45.83C39.5652 42.9524 39.7577 38.4892 42.6353 35.8498C45.5096 33.2169 49.9761 33.4094 52.6155 36.2837C55.2484 39.1613 55.2549 47.2818 54.1065 47.98C52.958 48.6749 44.8375 48.7075 42.2013 45.83Z" fill="#8FD1E1"/>
<path d="M50.5208 30.5057C47.4834 30.1696 45.291 27.4421 45.6237 24.4014C45.9598 21.3672 48.6905 19.1748 51.728 19.5076C54.7654 19.8436 58.3249 23.788 57.9138 25.5303C57.4962 27.2725 53.5583 30.8417 50.5208 30.5057Z" fill="#B7E1ED"/>
<path d="M41.5193 11.8568C39.5226 12.8682 37.0888 12.0722 36.0741 10.0722C35.066 8.07553 35.862 5.63839 37.8587 4.627C39.8554 3.6156 42.2958 4.41168 43.3072 6.40837C44.3153 8.40506 43.5193 10.8454 41.5193 11.8536" fill="#2BA4B9"/>
<path d="M76.8988 35.4517V39.5136H70.217V48.838H65.2253V27.279H78.9542L79.0096 27.5792C79.0521 27.8206 79.0749 28.0327 79.0782 28.2088C79.0977 28.3622 79.1075 28.5579 79.1075 28.7928C79.1075 29.4943 78.8987 30.0979 78.4583 30.5872C77.9982 31.1288 77.2087 31.3344 76.2234 31.3344H70.2203V35.4485H76.902L76.8988 35.4517Z" fill="white"/>
<path d="M88.9441 39.4777C88.8658 38.9525 88.7223 38.5087 88.52 38.1401C88.321 37.7779 88.0469 37.4908 87.7076 37.2755C87.3879 37.0569 86.9637 36.9329 86.4156 36.9329C85.8675 36.9329 85.4401 37.0536 85.0975 37.2755C84.7517 37.5137 84.4744 37.8171 84.2493 38.2053C84.0437 38.5805 83.8904 39.0177 83.7925 39.5267C83.6914 40.0421 83.6424 40.5674 83.6424 41.1057C83.6424 41.6441 83.6816 42.1824 83.7599 42.724C83.8578 43.2525 84.0111 43.7191 84.2232 44.1399C84.4222 44.5217 84.6897 44.8251 85.0323 45.06C85.3749 45.2818 85.8055 45.4025 86.3504 45.4025C86.8952 45.4025 87.352 45.2753 87.6685 45.06C88.0306 44.8251 88.3112 44.5217 88.5102 44.1399C88.719 43.7223 88.8625 43.2558 88.9408 42.7305C89.0224 42.1889 89.0616 41.6375 89.0616 41.0764C89.0616 40.5152 89.0224 40.003 88.9408 39.4842M93.6389 44.1204C93.3779 45.122 92.931 46.0061 92.2948 46.7728C91.6749 47.5461 90.8755 48.1594 89.8968 48.6129C88.905 49.0762 87.7174 49.3013 86.3536 49.3013C84.9899 49.3013 83.8023 49.086 82.8138 48.6455C81.8578 48.1888 81.0618 47.5852 80.4451 46.8348C79.835 46.0714 79.3848 45.1937 79.101 44.2182C78.8236 43.2329 78.6833 42.202 78.6833 41.1351C78.6833 40.0682 78.8432 39.0079 79.1695 38.0357C79.4924 37.0406 79.9721 36.1695 80.6083 35.4256C81.2673 34.6556 82.0895 34.0553 83.0682 33.6182C84.0568 33.1777 85.1987 32.9656 86.4809 32.9656C87.7631 32.9656 88.9865 33.1777 89.9588 33.6214C90.9375 34.0553 91.7303 34.6491 92.3307 35.4028C92.9473 36.1499 93.3812 37.0112 93.6422 37.99C93.9228 38.959 94.0598 39.9736 94.0598 41.0405C94.0598 42.1074 93.9228 43.1351 93.6422 44.1204" fill="white"/>
<path d="M105.619 45.2851C105.968 45.1872 106.268 45.0763 106.539 44.9425C106.816 44.7859 107.032 44.6424 107.221 44.489C107.423 44.3063 107.554 44.1726 107.642 44.0682L107.909 43.7452L108.193 44.0551C108.454 44.3422 108.699 44.7337 108.934 45.2264C109.195 45.7255 109.345 46.1856 109.345 46.6032C109.345 46.8609 109.289 47.1219 109.192 47.3666C109.074 47.6341 108.836 47.8854 108.546 48.1072C108.108 48.4269 107.508 48.714 106.764 48.9685C105.988 49.2328 105.022 49.36 103.88 49.36C103.1 49.36 102.262 49.2524 101.371 49.0403C100.448 48.8217 99.5898 48.4041 98.8068 47.794C98.0075 47.1741 97.355 46.3258 96.8362 45.272C96.3077 44.1693 96.0532 42.7599 96.0532 41.0699C96.0532 39.3798 96.3175 38.1107 96.8721 37.0471C97.4105 36.0129 98.0858 35.1809 98.9047 34.561C99.7073 33.9542 100.559 33.5366 101.459 33.318C102.35 33.0831 103.156 32.9656 103.88 32.9656C104.758 32.9656 105.573 33.0635 106.334 33.256C107.087 33.4485 107.723 33.7095 108.242 34.0488C108.653 34.3066 108.966 34.5708 109.156 34.8677C109.371 35.1646 109.469 35.5039 109.469 35.8824C109.469 36.2608 109.351 36.6621 109.159 37.1189C108.96 37.5626 108.702 37.9769 108.392 38.3554L108.128 38.6784L107.841 38.375C107.547 38.0618 107.097 37.7323 106.471 37.3897C105.887 37.07 105.234 36.9068 104.503 36.9068C103.211 36.9068 102.373 37.3049 101.883 38.0226C101.358 38.773 101.078 39.7648 101.078 41.0144C101.078 41.6506 101.136 42.2476 101.257 42.8023C101.371 43.3439 101.56 43.8039 101.821 44.1921C102.099 44.5804 102.445 44.8805 102.869 45.1024C103.28 45.3177 103.808 45.4352 104.471 45.4352C104.898 45.4352 105.28 45.3862 105.616 45.2949" fill="white"/>
<path d="M121.423 33.3376C121.743 33.2952 122.049 33.2756 122.346 33.2756C122.728 33.2756 123.097 33.3213 123.459 33.4094C123.853 33.5007 124.193 33.6508 124.486 33.8727C124.813 34.0978 125.061 34.4012 125.25 34.7796C125.452 35.1614 125.54 35.6279 125.54 36.1597V48.8348H122.346C121.792 48.8348 121.266 48.6782 121.022 48.2247C120.953 48.0648 120.901 47.8821 120.865 47.6766C120.539 47.9604 120.144 48.2279 119.694 48.4791C118.894 48.9131 117.854 49.1154 116.594 49.1154C115.087 49.1154 113.896 48.8217 113.097 48.1627C112.324 47.5265 111.828 46.6847 111.603 45.657C111.495 45.1644 111.42 44.6228 111.377 44.0453C111.358 43.4809 111.345 42.9197 111.345 42.3782V33.3702H111.71C111.841 33.3702 111.978 33.3604 112.128 33.3441C112.284 33.3213 112.435 33.3115 112.588 33.3082C112.761 33.2886 112.924 33.2789 113.077 33.2789C113.958 33.2789 114.715 33.4648 115.332 33.8661C116.014 34.3131 116.307 35.0896 116.307 36.0684V42.1922C116.307 42.6424 116.317 43.0502 116.337 43.4385C116.376 43.8039 116.451 44.1008 116.558 44.3487C116.666 44.5412 116.829 44.6978 117.054 44.8283C117.296 44.936 117.655 44.998 118.147 44.998C118.865 44.998 119.449 44.8544 119.919 44.5804C120.411 44.2867 120.575 43.9866 120.575 43.6864V33.3931L121.416 33.3409L121.423 33.3376Z" fill="white"/>
<path d="M139.403 36.7502C139.21 37.1809 138.998 37.5822 138.76 37.9672L138.541 38.3228L138.215 38.0618C138.029 37.915 137.778 37.7518 137.481 37.5952C137.214 37.4223 136.884 37.2592 136.532 37.1189C136.176 36.9623 135.794 36.8285 135.4 36.7306C135.037 36.636 134.662 36.5871 134.277 36.5871C134.069 36.5871 133.837 36.6099 133.608 36.6458C133.403 36.6621 133.197 36.7176 133.034 36.7992C132.91 36.8546 132.786 36.9492 132.672 37.0928C132.61 37.1744 132.561 37.3114 132.561 37.5528C132.561 37.9378 132.985 38.4076 134.538 38.7469C135.175 38.8742 135.794 39.0405 136.408 39.2559C137.067 39.4516 137.644 39.7355 138.157 40.1172C138.701 40.5022 139.125 40.985 139.442 41.5723C139.794 42.1824 139.954 42.9165 139.954 43.7713C139.954 44.6261 139.781 45.4417 139.419 46.1432C139.083 46.8348 138.617 47.4155 138.01 47.8854C137.409 48.3519 136.705 48.7043 135.902 48.9424C135.116 49.1806 134.264 49.3013 133.341 49.3013C132.418 49.3013 131.609 49.2295 130.933 49.0762C130.294 48.949 129.755 48.7891 129.308 48.5868C129.002 48.4563 128.656 48.2638 128.284 48.0224C127.86 47.7026 127.628 47.2557 127.628 46.7272C127.628 46.2998 127.752 45.8821 127.984 45.4645C128.196 45.06 128.437 44.6522 128.715 44.228L128.946 43.8691L129.266 44.153C129.442 44.3096 129.661 44.476 129.915 44.6522C130.189 44.8088 130.496 44.9621 130.826 45.1187C131.178 45.2557 131.55 45.3699 131.938 45.4678C132.323 45.5657 132.718 45.6114 133.122 45.6114C133.374 45.6114 133.638 45.5918 133.909 45.5526C134.16 45.5167 134.365 45.4417 134.525 45.3471C134.705 45.2492 134.855 45.1154 134.966 44.9588C135.057 44.8283 135.116 44.6391 135.116 44.3618C135.116 43.8789 134.93 43.5853 134.591 43.4091C134.189 43.171 133.533 42.9491 132.613 42.7631C131.994 42.6359 131.396 42.463 130.819 42.2509C130.228 42.0323 129.693 41.742 129.227 41.3863C128.751 41.0014 128.359 40.5185 128.069 39.9573C127.791 39.3766 127.658 38.6817 127.658 37.8954C127.658 37.1091 127.837 36.375 128.206 35.7486C128.565 35.145 129.034 34.6296 129.612 34.2087C130.212 33.7878 130.894 33.4779 131.657 33.2821C132.418 33.0635 133.201 32.9591 134.023 32.9591C134.845 32.9591 135.635 33.0244 136.297 33.1516C136.979 33.2789 137.573 33.4518 138.081 33.6704C139.034 34.0619 139.68 34.6394 139.736 35.455C139.736 35.8432 139.612 36.2804 139.39 36.7404" fill="white"/>
<path d="M78.8398 22.0883C78.7452 22.1829 78.5658 22.3329 78.3015 22.5417C78.0372 22.7506 77.6784 22.9594 77.2249 23.1649C76.791 23.3737 76.2592 23.5531 75.636 23.7032C75.0292 23.8729 74.3212 23.9577 73.5088 23.9577C72.0537 23.9577 70.7943 23.713 69.734 23.2204C68.6737 22.7277 67.8058 22.0491 67.124 21.178C66.4421 20.3069 65.9429 19.2661 65.6199 18.0557C65.3002 16.8453 65.1371 15.5305 65.1371 14.1113C65.1371 12.6921 65.2969 11.3773 65.6199 10.1668C65.9592 8.93685 66.4715 7.88631 67.1533 7.01847C67.8548 6.12779 68.7226 5.43938 69.7634 4.94674C70.8237 4.43778 72.0798 4.18003 73.5382 4.18003C74.2755 4.18003 74.9835 4.26486 75.6654 4.43451C76.3472 4.60416 76.941 4.82276 77.4533 5.08702C77.9818 5.35129 78.3994 5.64493 78.7028 5.96792C79.0258 6.28765 79.1857 6.59107 79.1857 6.87491C79.1857 7.11961 79.1008 7.38714 78.9312 7.67098C78.7811 7.93525 78.618 8.17341 78.4483 8.37895H77.9361C77.7273 8.15057 77.4826 7.91567 77.1988 7.67098C76.9345 7.42629 76.6213 7.2077 76.2624 7.01847C75.9035 6.82924 75.4957 6.67916 75.0422 6.56497C74.5887 6.4312 74.0863 6.36595 73.5382 6.36595C72.4028 6.36595 71.4567 6.59433 70.6997 7.04783C69.9624 7.48175 69.3653 8.06901 68.9118 8.80635C68.4779 9.52411 68.1647 10.3495 67.9755 11.2761C67.7863 12.1831 67.6916 13.1195 67.6916 14.0852C67.6916 15.0509 67.7863 16.0231 67.9755 16.9497C68.1843 17.8763 68.5236 18.7082 68.9967 19.4456C69.4697 20.1666 70.0929 20.7408 70.8694 21.178C71.6459 21.6119 72.6116 21.8305 73.7633 21.8305C74.3864 21.8305 74.9541 21.7457 75.4663 21.576C75.9786 21.3868 76.4125 21.1682 76.7714 20.9235C77.1498 20.6788 77.463 20.4407 77.7077 20.2155C77.9524 19.9872 78.1253 19.8175 78.2167 19.7033C78.4255 19.873 78.6408 20.1209 78.8692 20.4407C79.1139 20.7441 79.2379 21.0083 79.2379 21.2335C79.2379 21.4031 79.1987 21.5565 79.1237 21.687C79.0486 21.8011 78.954 21.9317 78.8398 22.085" fill="white"/>
<path d="M88.6015 16.8094H87.7794C87.1758 16.8094 86.5592 16.8486 85.936 16.9236C85.3129 16.9987 84.7452 17.1422 84.233 17.3478C83.7207 17.5566 83.3064 17.8502 82.9834 18.2286C82.6604 18.5875 82.5005 19.0704 82.5005 19.6772C82.5005 20.2449 82.6702 20.7474 83.0095 21.1813C83.3521 21.6152 83.985 21.8338 84.9116 21.8338C85.4042 21.8338 85.8675 21.7685 86.3014 21.6348C86.7549 21.4847 87.153 21.302 87.4923 21.0964C87.8316 20.8876 88.0958 20.6625 88.2851 20.4146C88.4939 20.1699 88.5983 19.9317 88.5983 19.7066V16.8127L88.6015 16.8094ZM90.9538 20.4407C90.9538 20.8942 90.9734 21.253 91.0093 21.5173C91.0485 21.762 91.1137 21.9512 91.2083 22.085C91.3225 22.1992 91.4628 22.2742 91.6325 22.3134C91.8217 22.3525 92.0566 22.3688 92.3404 22.3688V23.5042C92.1708 23.5597 91.962 23.6086 91.7173 23.6445C91.4726 23.6837 91.2149 23.7 90.9506 23.7C90.3633 23.7 89.8544 23.5858 89.4172 23.3607C88.9833 23.116 88.7288 22.6886 88.6505 22.085C88.1774 22.5581 87.6097 22.9659 86.9474 23.3052C86.2851 23.6249 85.414 23.7881 84.3374 23.7881C83.8447 23.7881 83.3456 23.7326 82.8333 23.6184C82.3407 23.5042 81.8872 23.2987 81.4728 22.9953C81.0748 22.6918 80.7453 22.2873 80.481 21.7751C80.2167 21.2628 80.083 20.6103 80.083 19.8175C80.083 18.8322 80.3277 18.0296 80.8203 17.4065C81.3325 16.7833 81.9557 16.2907 82.693 15.9318C83.4304 15.5729 84.2167 15.325 85.0486 15.1945C85.9001 15.0607 86.6766 14.9857 87.3748 14.9693H87.9719C88.2003 14.9693 88.396 14.9791 88.5689 14.9987V14.5713C88.5689 13.7198 88.3601 13.0771 87.9458 12.6431C87.5477 12.1896 86.7745 11.9613 85.6196 11.9613C84.768 11.9613 84.0503 12.0755 83.463 12.3006C82.8757 12.5094 82.308 12.803 81.7599 13.1815H81.4761C81.326 12.9368 81.1923 12.6692 81.0781 12.3887C80.9835 12.1048 80.9345 11.8764 80.9345 11.7068C80.9345 11.4621 81.0879 11.2337 81.388 11.0249C81.6914 10.7965 82.0797 10.6008 82.5527 10.4278C83.0454 10.2582 83.5837 10.1244 84.171 10.0298C84.7582 9.9352 85.3357 9.88953 85.9034 9.88953C86.8691 9.88953 87.6717 9.99393 88.3144 10.2027C88.9572 10.4115 89.4792 10.7215 89.8739 11.1391C90.272 11.5567 90.546 12.0755 90.6961 12.6986C90.8658 13.3218 90.9506 14.0428 90.9506 14.8552V20.4439L90.9538 20.4407Z" fill="white"/>
<path d="M94.3598 10.1114C94.7938 10.1114 95.182 10.2256 95.5246 10.4507C95.8835 10.6595 96.102 11.0282 96.1771 11.5567C96.611 11.1228 97.1983 10.7345 97.9356 10.392C98.6925 10.0527 99.5799 9.883 100.601 9.883C101.887 9.883 102.872 10.1668 103.55 10.7345C104.232 11.3022 104.676 12.0102 104.885 12.8617C104.979 13.2402 105.035 13.6676 105.055 14.1374C105.074 14.5909 105.084 15.0346 105.084 15.4718V23.5303H102.673V15.5566C102.673 15.1977 102.663 14.8551 102.643 14.5354C102.643 14.1961 102.598 13.8829 102.503 13.5991C102.369 13.1064 102.095 12.728 101.681 12.4637C101.263 12.1994 100.65 12.0657 99.8377 12.0657C98.7578 12.0657 97.8997 12.2843 97.257 12.7182C96.6143 13.1358 96.2913 13.5893 96.2913 14.0819V23.5303H93.8802V10.1375H94.1641C94.2391 10.1179 94.3044 10.1081 94.3631 10.1081" fill="white"/>
<path d="M113.769 21.9186C114.281 21.9186 114.735 21.8436 115.129 21.6902C115.547 21.5206 115.896 21.3313 116.18 21.1225C116.519 20.8942 116.823 20.6299 117.087 20.3265C117.237 20.4765 117.426 20.7147 117.655 21.0344C117.899 21.3379 118.023 21.6217 118.023 21.886C118.023 22.1502 117.824 22.4537 117.426 22.7962C117.067 23.116 116.545 23.3933 115.867 23.6184C115.204 23.8468 114.392 23.9577 113.426 23.9577C112.82 23.9577 112.151 23.8729 111.41 23.7032C110.692 23.5336 110.01 23.1943 109.368 22.682C108.745 22.1698 108.213 21.4618 107.779 20.5548C107.345 19.6283 107.126 18.4081 107.126 16.8943C107.126 15.4946 107.355 14.3397 107.808 13.4327C108.262 12.5257 108.82 11.8144 109.482 11.3055C110.144 10.7769 110.842 10.4083 111.58 10.1995C112.337 9.99067 112.999 9.88626 113.567 9.88626C114.249 9.88626 114.852 9.9613 115.384 10.1146C115.932 10.2484 116.395 10.4278 116.774 10.653C117.172 10.8618 117.475 11.0869 117.681 11.3348C117.89 11.5795 117.994 11.8177 117.994 12.0428C117.994 12.2679 117.919 12.5257 117.766 12.8095C117.616 13.0934 117.462 13.3381 117.312 13.5469H116.999C116.676 13.1684 116.262 12.8193 115.749 12.4963C115.237 12.157 114.549 11.9841 113.678 11.9841C112.96 11.9841 112.343 12.1081 111.834 12.3528C111.322 12.5975 110.898 12.9498 110.559 13.4033C110.236 13.8372 110.001 14.3592 109.851 14.9661C109.701 15.5533 109.622 16.1863 109.622 16.8682C109.622 17.55 109.697 18.2286 109.851 18.8551C110.001 19.4586 110.239 19.9904 110.559 20.4439C110.898 20.8974 111.335 21.2563 111.864 21.5206C112.392 21.7848 113.028 21.9186 113.766 21.9186" fill="white"/>
<path d="M127.984 15.5044C127.984 14.9922 127.928 14.5191 127.814 14.0852C127.72 13.6513 127.55 13.2728 127.302 12.9498C127.057 12.6072 126.725 12.343 126.31 12.1537C125.912 11.9645 125.423 11.8699 124.836 11.8699C123.853 11.8699 123.038 12.1929 122.395 12.8356C121.772 13.4783 121.42 14.369 121.345 15.5044H127.984ZM125.547 21.9186C126.095 21.9186 126.568 21.8631 126.966 21.749C127.384 21.6348 127.733 21.4945 128.017 21.3248C128.32 21.1552 128.574 20.9855 128.783 20.8126C128.992 20.6234 129.162 20.4537 129.292 20.3004C129.501 20.5646 129.68 20.8485 129.831 21.1519C130 21.4553 130.085 21.6902 130.085 21.8599C130.085 22.01 130.036 22.1731 129.945 22.3427C129.85 22.4928 129.69 22.6559 129.462 22.8256C129.028 23.1486 128.47 23.4129 127.788 23.6184C127.106 23.8468 126.284 23.9577 125.318 23.9577C124.431 23.9577 123.589 23.8239 122.793 23.5597C122.017 23.315 121.338 22.9072 120.751 22.3395C120.164 21.7718 119.7 21.0345 119.361 20.1275C119.018 19.2009 118.849 18.0753 118.849 16.7507C118.849 15.5599 119.018 14.5289 119.361 13.6578C119.72 12.7867 120.183 12.0787 120.751 11.5306C121.319 10.9629 121.961 10.5453 122.679 10.281C123.416 10.0168 124.173 9.883 124.95 9.883C125.915 9.883 126.738 10.0429 127.419 10.3659C128.121 10.6889 128.685 11.1228 129.123 11.6709C129.556 12.1994 129.879 12.8258 130.088 13.5436C130.297 14.2418 130.401 14.9726 130.401 15.7295C130.401 15.9938 130.392 16.2678 130.372 16.5517C130.372 16.816 130.353 17.0704 130.317 17.3184H121.351C121.407 18.6984 121.769 19.8142 122.431 20.6658C123.113 21.4977 124.154 21.9153 125.553 21.9153" fill="white"/>
<path d="M132.809 10.1114C133.243 10.1114 133.631 10.2256 133.974 10.4507C134.333 10.6595 134.552 11.0184 134.627 11.5306C134.891 11.1326 135.289 10.7639 135.817 10.4246C136.346 10.0657 136.963 9.88626 137.661 9.88626C137.87 9.88626 138.088 9.90584 138.313 9.94173C138.558 9.98088 138.786 10.0461 138.995 10.1407C139.204 10.2158 139.374 10.33 139.507 10.48C139.641 10.6301 139.706 10.8291 139.706 11.0771C139.706 11.3805 139.631 11.71 139.478 12.0689C139.328 12.4082 139.175 12.6921 139.025 12.9204C138.78 12.6921 138.516 12.5224 138.228 12.4082C137.945 12.2777 137.586 12.2092 137.152 12.2092C136.829 12.2092 136.519 12.2647 136.215 12.3789C135.932 12.4735 135.677 12.6138 135.449 12.803C135.22 12.9726 135.041 13.1717 134.91 13.4C134.777 13.6284 134.711 13.8633 134.711 14.108V23.5271H132.3V10.1342H132.669C132.724 10.1146 132.773 10.1049 132.813 10.1049" fill="white"/>
<path d="M66.1094 55.0271C66.0409 54.9162 65.9724 54.8411 65.8941 54.7955C65.819 54.7498 65.7146 54.727 65.5809 54.727C65.5123 54.727 65.4471 54.7302 65.3819 54.74C65.3133 54.7498 65.2644 54.7596 65.2285 54.7726V60.8508H65.9658V56.1233L69.0653 60.8508H69.8026V55.3012C69.8026 55.1805 69.7863 55.0793 69.7537 55.0043C69.7211 54.9292 69.6786 54.8705 69.6264 54.8314C69.5742 54.7922 69.5188 54.7661 69.4568 54.7498C69.3948 54.7335 69.3393 54.727 69.2839 54.727C69.2545 54.727 69.2252 54.727 69.1958 54.7302C69.1697 54.7335 69.1468 54.7335 69.1273 54.7335C69.1012 54.74 69.0816 54.7433 69.062 54.7433V59.6371L66.1094 55.0271ZM75.9591 56.5507C75.8612 56.169 75.7079 55.8362 75.4991 55.5524C75.2902 55.2718 75.0227 55.0467 74.6965 54.8836C74.3702 54.7204 73.982 54.6389 73.5252 54.6389C73.0684 54.6389 72.6541 54.7237 72.318 54.8934C71.9787 55.063 71.7014 55.2914 71.4828 55.5818C71.2642 55.8689 71.1044 56.2049 71 56.5834C70.8956 56.9618 70.8466 57.3631 70.8466 57.7807C70.8466 58.1983 70.8923 58.6029 70.9869 58.9944C71.0816 59.3826 71.2316 59.7252 71.4372 60.0188C71.6427 60.3157 71.9135 60.5474 72.243 60.7268C72.5725 60.903 72.9738 60.9911 73.4404 60.9911C73.9069 60.9911 74.3213 60.903 74.6573 60.7301C74.9934 60.5572 75.2707 60.3255 75.4827 60.0319C75.6948 59.7415 75.8514 59.399 75.9526 59.0107C76.0537 58.6225 76.1026 58.2081 76.1026 57.7709C76.1026 57.3337 76.0537 56.9324 75.9558 56.5507M75.1826 58.7236C75.1206 59.0238 75.0227 59.2913 74.8824 59.5262C74.7422 59.7611 74.5562 59.9471 74.3245 60.0808C74.0929 60.2146 73.8123 60.2864 73.4763 60.2864C73.1402 60.2864 72.8531 60.2179 72.6247 60.0808C72.3964 59.9438 72.2136 59.7578 72.0734 59.5262C71.9331 59.2913 71.8319 59.0238 71.7732 58.7236C71.7112 58.4235 71.6819 58.107 71.6819 57.7807C71.6819 57.4545 71.7112 57.1445 71.7732 56.8509C71.8352 56.5605 71.9363 56.3028 72.0799 56.0809C72.2234 55.8591 72.4094 55.6862 72.6411 55.5589C72.8727 55.4317 73.1598 55.3664 73.5056 55.3664C73.8351 55.3664 74.1125 55.4317 74.3376 55.5589C74.566 55.6862 74.7487 55.8623 74.8857 56.0809C75.0227 56.3028 75.1206 56.5605 75.1826 56.8509C75.2413 57.1413 75.2739 57.4512 75.2739 57.7807C75.2739 58.1102 75.2446 58.4235 75.1826 58.7236ZM80.3766 55.1152C80.0112 54.8314 79.4141 54.6911 78.5822 54.6911C78.3505 54.6911 78.1091 54.6976 77.8579 54.7106C77.6067 54.7237 77.3718 54.7433 77.1532 54.7726V60.8508H77.946V58.3549H78.7551L80.1776 60.5767C80.3277 60.8149 80.543 60.9324 80.8236 60.9324C80.8921 60.9324 80.9639 60.9258 81.0422 60.916C81.1205 60.903 81.1922 60.8834 81.251 60.8508L79.5838 58.2114C79.7665 58.169 79.9362 58.1005 80.0993 58.0026C80.2591 57.9047 80.4027 57.784 80.5234 57.6372C80.6441 57.4904 80.742 57.3174 80.8138 57.1184C80.8856 56.9194 80.9214 56.691 80.9214 56.4365C80.9214 55.8395 80.7387 55.4023 80.3766 55.1185M79.9851 57.0368C79.9133 57.1902 79.8089 57.3142 79.6752 57.4121C79.5414 57.5099 79.3848 57.5817 79.2021 57.6241C79.0194 57.6665 78.8171 57.6894 78.592 57.6894H77.9362V55.3925H77.9166C78.008 55.3795 78.1091 55.3697 78.2168 55.3632C78.3244 55.3566 78.4549 55.3534 78.5985 55.3534C78.8236 55.3534 79.0292 55.3697 79.2151 55.3991C79.4011 55.4284 79.5577 55.4871 79.6882 55.5687C79.8187 55.6503 79.9198 55.7645 79.9883 55.9113C80.0569 56.0581 80.0928 56.2441 80.0928 56.4724C80.0928 56.7008 80.0569 56.8803 79.9818 57.0336M83.1204 60.8508H83.9328V55.448H85.3716C85.5608 55.448 85.7011 55.4023 85.7892 55.3077C85.8806 55.2131 85.9262 55.0989 85.9262 54.9651C85.9262 54.9456 85.9262 54.926 85.923 54.9064C85.9197 54.8868 85.9197 54.864 85.9197 54.8379C85.9132 54.815 85.9099 54.7857 85.9099 54.7563H81.7175C81.5283 54.7563 81.388 54.802 81.2999 54.8868C81.2086 54.9749 81.1629 55.0761 81.1629 55.1935V55.2849C81.1629 55.3142 81.1629 55.3436 81.1727 55.3664C81.1792 55.3893 81.1857 55.4186 81.1922 55.448H83.1237V60.8508H83.1204ZM87.2932 55.3012C87.2932 55.1805 87.2737 55.0793 87.2378 55.0043C87.2019 54.9292 87.1562 54.8705 87.1007 54.8314C87.0453 54.7922 86.9865 54.7661 86.918 54.7498C86.8528 54.7335 86.7875 54.727 86.7256 54.727C86.6962 54.727 86.6668 54.727 86.644 54.7302C86.6212 54.7335 86.595 54.7335 86.5722 54.7335C86.5494 54.74 86.5233 54.7433 86.5004 54.7433V60.8475H87.2932V58.0221H90.1904V60.8475H90.9832V55.2979C90.9832 55.1772 90.9636 55.076 90.9245 55.001C90.8853 54.926 90.8364 54.8673 90.7777 54.8281C90.7189 54.789 90.6602 54.7629 90.595 54.7465C90.5297 54.7302 90.471 54.7237 90.4155 54.7237C90.3862 54.7237 90.3568 54.7237 90.334 54.727C90.3078 54.7302 90.285 54.7302 90.2622 54.7302C90.2393 54.7368 90.2132 54.74 90.1904 54.74V57.3272H87.2932V55.2946V55.3012ZM92.9799 55.4382H95.1658C95.3779 55.4382 95.5247 55.3925 95.603 55.2979C95.6813 55.2033 95.7204 55.0858 95.7204 54.9456V54.8509C95.7204 54.8248 95.7139 54.7922 95.7009 54.7563H92.1838V60.8508H95.8477V60.7856C95.8477 60.766 95.8477 60.7496 95.8509 60.7268C95.8509 60.704 95.8542 60.6844 95.8542 60.6583C95.8542 60.518 95.8085 60.4006 95.7237 60.3059C95.6356 60.2113 95.4921 60.1657 95.2898 60.1657H92.9766V58.0156H95.0451V57.3142H92.9766V55.4382H92.9799ZM99.8313 55.1152C99.4659 54.8314 98.8688 54.6911 98.0369 54.6911C97.8052 54.6911 97.5638 54.6976 97.3126 54.7106C97.0614 54.7237 96.8264 54.7433 96.6046 54.7726V60.8508H97.3974V58.3549H98.2098L99.6323 60.5767C99.7856 60.8149 100.001 60.9324 100.278 60.9324C100.343 60.9324 100.419 60.9258 100.497 60.916C100.575 60.903 100.647 60.8834 100.706 60.8508L99.0385 58.2114C99.2212 58.169 99.3908 58.1005 99.554 58.0026C99.7138 57.9047 99.8574 57.784 99.9781 57.6372C100.099 57.4904 100.197 57.3174 100.268 57.1184C100.34 56.9194 100.376 56.691 100.376 56.4365C100.376 55.8395 100.193 55.4023 99.8313 55.1185M99.4398 57.0368C99.368 57.1902 99.2636 57.3142 99.1298 57.4121C98.9961 57.5099 98.8395 57.5817 98.6568 57.6241C98.4741 57.6665 98.2718 57.6894 98.0467 57.6894H97.3909V55.3925H97.3713C97.4627 55.3795 97.5638 55.3697 97.6715 55.3632C97.7824 55.3566 97.9096 55.3534 98.0532 55.3534C98.2783 55.3534 98.4838 55.3697 98.6698 55.3991C98.8558 55.4284 99.0124 55.4871 99.1429 55.5687C99.2734 55.6503 99.3745 55.7645 99.443 55.9113C99.5148 56.0581 99.5474 56.2441 99.5474 56.4724C99.5474 56.7008 99.5115 56.8803 99.4398 57.0336M102.327 55.0271C102.259 54.9162 102.19 54.8411 102.112 54.7955C102.037 54.7498 101.932 54.727 101.799 54.727C101.73 54.727 101.665 54.7302 101.596 54.74C101.531 54.7498 101.479 54.7596 101.443 54.7726V60.8508H102.18V56.1233L105.28 60.8508H106.017V55.3012C106.017 55.1805 106.001 55.0793 105.968 55.0043C105.936 54.9292 105.893 54.8705 105.841 54.8314C105.789 54.7922 105.733 54.7661 105.671 54.7498C105.609 54.7335 105.554 54.727 105.498 54.727C105.469 54.727 105.44 54.727 105.41 54.7302C105.384 54.7335 105.361 54.7335 105.342 54.7335C105.316 54.74 105.296 54.7433 105.276 54.7433V59.6371L102.324 55.0271H102.327ZM109.609 55.3012C109.609 55.1805 109.59 55.0793 109.55 55.0043C109.511 54.9292 109.459 54.8705 109.397 54.8314C109.335 54.7922 109.273 54.7661 109.208 54.7498C109.143 54.7335 109.084 54.727 109.028 54.727C108.999 54.727 108.97 54.727 108.947 54.7302C108.924 54.7335 108.898 54.7335 108.872 54.7335C108.846 54.74 108.823 54.7433 108.797 54.7433V60.8475H109.609V55.2979V55.3012ZM114.01 55.1152C113.645 54.8314 113.048 54.6911 112.216 54.6911C111.984 54.6911 111.743 54.6976 111.492 54.7106C111.24 54.7237 111.006 54.7433 110.787 54.7726V60.8508H111.58V58.3549H112.392L113.815 60.5767C113.968 60.8149 114.18 60.9324 114.461 60.9324C114.529 60.9324 114.601 60.9258 114.679 60.916C114.758 60.903 114.829 60.8834 114.888 60.8508L113.221 58.2114C113.404 58.169 113.573 58.1005 113.736 58.0026C113.896 57.9047 114.04 57.784 114.16 57.6372C114.281 57.4904 114.379 57.3174 114.451 57.1184C114.523 56.9194 114.562 56.691 114.562 56.4365C114.562 55.8395 114.379 55.4023 114.014 55.1185M113.619 57.0368C113.547 57.1902 113.443 57.3142 113.309 57.4121C113.175 57.5099 113.019 57.5817 112.836 57.6241C112.653 57.6665 112.451 57.6894 112.226 57.6894H111.57V55.3925H111.55C111.642 55.3795 111.743 55.3697 111.851 55.3632C111.962 55.3566 112.089 55.3534 112.232 55.3534C112.457 55.3534 112.663 55.3697 112.849 55.3991C113.035 55.4284 113.191 55.4871 113.322 55.5687C113.452 55.6503 113.554 55.7645 113.622 55.9113C113.691 56.0581 113.727 56.2441 113.727 56.4724C113.727 56.7008 113.691 56.8803 113.616 57.0336M116.405 55.4382H118.591C118.803 55.4382 118.95 55.3925 119.028 55.2979C119.107 55.2033 119.146 55.0858 119.146 54.9456V54.8509C119.146 54.8248 119.139 54.7922 119.126 54.7563H115.609V60.8508H119.273V60.7856C119.273 60.766 119.273 60.7496 119.276 60.7268C119.279 60.704 119.279 60.6844 119.279 60.6583C119.279 60.518 119.237 60.4006 119.146 60.3059C119.058 60.2113 118.914 60.1657 118.712 60.1657H116.395V58.0156H118.464V57.3142H116.395V55.4382H116.405ZM120.023 60.8508H123.469V60.7856C123.469 60.766 123.469 60.7464 123.472 60.7203C123.472 60.6975 123.475 60.6681 123.475 60.6387C123.475 60.505 123.433 60.3908 123.348 60.2962C123.263 60.2016 123.123 60.1559 122.927 60.1559H120.813V55.2979C120.813 55.1772 120.793 55.076 120.754 55.001C120.715 54.926 120.666 54.8673 120.607 54.8281C120.549 54.789 120.49 54.7629 120.425 54.7465C120.359 54.7302 120.301 54.7237 120.245 54.7237C120.216 54.7237 120.186 54.7237 120.164 54.727C120.141 54.7302 120.115 54.7302 120.092 54.7302C120.069 54.7368 120.043 54.74 120.02 54.74V60.8443L120.023 60.8508ZM128.943 60.8508L126.839 55.1021C126.783 54.9553 126.708 54.8575 126.617 54.8053C126.522 54.7531 126.418 54.727 126.304 54.727C126.219 54.727 126.134 54.7367 126.049 54.7531C125.964 54.7726 125.899 54.789 125.857 54.8085L123.651 60.8508H124.454L125.048 59.2097H127.508L128.118 60.8508H128.946H128.943ZM127.296 58.5637H125.247L126.278 55.6568L127.299 58.5637H127.296ZM130.519 55.0271C130.45 54.9162 130.382 54.8411 130.304 54.7955C130.229 54.7498 130.124 54.727 129.99 54.727C129.922 54.727 129.857 54.7302 129.791 54.74C129.726 54.7498 129.674 54.7596 129.638 54.7726V60.8508H130.375V56.1233L133.472 60.8508H134.209V55.3012C134.209 55.1805 134.193 55.0793 134.16 55.0043C134.127 54.9292 134.085 54.8705 134.033 54.8314C133.981 54.7922 133.925 54.7661 133.863 54.7498C133.801 54.7335 133.746 54.727 133.69 54.727C133.661 54.727 133.631 54.727 133.602 54.7302C133.576 54.7335 133.553 54.7335 133.534 54.7335C133.507 54.74 133.488 54.7433 133.468 54.7433V59.6371L130.516 55.0271H130.519ZM139.85 56.5312C139.752 56.1657 139.586 55.8493 139.354 55.5752C139.119 55.3012 138.809 55.0858 138.421 54.9292C138.033 54.7726 137.547 54.6911 136.963 54.6911C136.75 54.6911 136.522 54.6976 136.274 54.7106C136.029 54.7237 135.746 54.7465 135.423 54.7824V60.8508H136.845C137.289 60.8508 137.677 60.8051 138.013 60.7203C138.346 60.6322 138.633 60.5017 138.868 60.3321C139.256 60.0449 139.543 59.673 139.726 59.2163C139.909 58.7562 140 58.2505 140 57.6992C140 57.2848 139.951 56.8966 139.853 56.5312M139.07 58.7008C138.995 58.9944 138.868 59.2521 138.695 59.4707C138.522 59.6893 138.294 59.8622 138.01 59.9927C137.726 60.12 137.38 60.1852 136.972 60.1852H136.215V55.4382C136.343 55.4186 136.473 55.4088 136.604 55.4023C136.734 55.3958 136.861 55.3925 136.982 55.3925C137.41 55.3925 137.765 55.4513 138.046 55.5654C138.33 55.6796 138.555 55.8428 138.728 56.0548C138.897 56.2636 139.018 56.5149 139.083 56.8052C139.152 57.0956 139.184 57.4088 139.184 57.7514C139.184 58.0939 139.145 58.4104 139.07 58.704" fill="#B7E1ED"/>
</svg>
