<svg width="130" height="57" viewBox="0 0 130 57" fill="none" xmlns="http://www.w3.org/2000/svg">
<path d="M19.704 4.08444C23.9969 8.31972 24.0484 15.227 19.8161 19.5229C15.5839 23.8188 8.6705 23.8703 4.37464 19.638C0.0848275 15.4058 0 0.000638732 0 0.000638732C0 0.000638732 15.4051 -0.147808 19.701 4.08141" fill="#8FD1E1"/>
<path d="M5.42274 27.0997C9.00061 23.2916 14.9809 23.1007 18.789 26.6725C22.5971 30.2473 22.7849 36.2307 19.2162 40.0418C15.6413 43.8469 2.8749 44.3861 2.65678 44.0317C2.44168 43.6742 1.84789 30.9078 5.42274 27.0997Z" fill="#2BA4B9"/>
<path d="M19.6282 44.7438C19.7615 40.3237 23.4394 36.8489 27.8594 36.9791C32.2765 37.1094 35.7514 40.7933 35.6241 45.2104C35.4908 49.6244 28.2866 56.7862 27.4868 56.565C26.684 56.3408 19.4979 49.1608 19.6282 44.7438Z" fill="#B7E1ED"/>
<path d="M39.1868 42.5562C36.739 39.8841 36.9177 35.7397 39.5898 33.2888C42.2588 30.844 46.4062 31.0227 48.8571 33.6918C51.3019 36.3638 51.308 43.9043 50.2416 44.5526C49.1752 45.1979 41.6347 45.2282 39.1868 42.5562Z" fill="#8FD1E1"/>
<path d="M46.9123 28.326C44.0918 28.014 42.056 25.4813 42.365 22.6578C42.677 19.8404 45.2127 17.8045 48.0332 18.1135C50.8537 18.4256 54.1589 22.0883 53.7772 23.706C53.3894 25.3238 49.7328 28.6381 46.9123 28.326Z" fill="#B7E1ED"/>
<path d="M38.5536 11.0095C36.6995 11.9487 34.4395 11.2095 33.4973 9.35239C32.5612 7.49832 33.3003 5.23526 35.1544 4.29611C37.0085 3.35696 39.2746 4.09617 40.2137 5.95024C41.1499 7.80431 40.4107 10.0704 38.5536 11.0065" fill="#2BA4B9"/>
<path d="M71.4061 32.919V36.6908H65.2016V45.3492H60.5664V25.3301H73.3147L73.3662 25.6088C73.4055 25.833 73.4267 26.0299 73.4298 26.1935C73.448 26.3359 73.457 26.5176 73.457 26.7358C73.457 27.3871 73.2631 27.9476 72.8542 28.402C72.427 28.9049 71.6939 29.0958 70.7789 29.0958H65.2046V32.916H71.4091L71.4061 32.919Z" fill="#1C1C1C"/>
<path d="M82.5908 36.6583C82.5181 36.1705 82.3848 35.7585 82.197 35.4162C82.0122 35.0799 81.7577 34.8133 81.4427 34.6133C81.1458 34.4104 80.7519 34.2952 80.243 34.2952C79.734 34.2952 79.3371 34.4073 79.019 34.6133C78.6979 34.8345 78.4404 35.1162 78.2314 35.4767C78.0405 35.8251 77.8981 36.2311 77.8072 36.7037C77.7133 37.1824 77.6679 37.6701 77.6679 38.17C77.6679 38.6699 77.7042 39.1697 77.7769 39.6726C77.8678 40.1634 78.0102 40.5966 78.2071 40.9875C78.3919 41.3419 78.6404 41.6237 78.9585 41.8418C79.2766 42.0478 79.6764 42.1599 80.1824 42.1599C80.6883 42.1599 81.1124 42.0417 81.4063 41.8418C81.7426 41.6237 82.0031 41.3419 82.1879 40.9875C82.3818 40.5997 82.5151 40.1664 82.5878 39.6787C82.6636 39.1758 82.6999 38.6638 82.6999 38.1427C82.6999 37.6216 82.6636 37.146 82.5878 36.6643M86.9503 40.9693C86.708 41.8993 86.2929 42.7203 85.7022 43.4323C85.1266 44.1503 84.3843 44.7198 83.4755 45.1409C82.5545 45.5711 81.4517 45.7802 80.1854 45.7802C78.9191 45.7802 77.8163 45.5802 76.8984 45.1712C76.0107 44.7471 75.2715 44.1866 74.6989 43.4898C74.1324 42.7809 73.7143 41.966 73.4508 41.0602C73.1933 40.1452 73.063 39.1879 73.063 38.1973C73.063 37.2066 73.2114 36.222 73.5144 35.3192C73.8143 34.3952 74.2597 33.5863 74.8504 32.8956C75.4624 32.1806 76.2258 31.6232 77.1347 31.2172C78.0526 30.8082 79.113 30.6113 80.3036 30.6113C81.4942 30.6113 82.6302 30.8082 83.533 31.2203C84.4419 31.6232 85.1781 32.1746 85.7355 32.8744C86.3081 33.5681 86.711 34.3679 86.9534 35.2768C87.2139 36.1766 87.3411 37.1187 87.3411 38.1094C87.3411 39.1001 87.2139 40.0544 86.9534 40.9693" fill="#1C1C1C"/>
<path d="M98.075 42.0508C98.3991 41.9599 98.6778 41.8569 98.9293 41.7327C99.1868 41.5873 99.3867 41.454 99.5625 41.3116C99.7503 41.142 99.8715 41.0177 99.9533 40.9208L100.202 40.6209L100.465 40.9087C100.708 41.1753 100.935 41.5388 101.153 41.9963C101.395 42.4598 101.535 42.887 101.535 43.2747C101.535 43.5141 101.483 43.7564 101.392 43.9837C101.283 44.2321 101.062 44.4653 100.792 44.6713C100.386 44.9682 99.8291 45.2348 99.1383 45.4711C98.4173 45.7165 97.5206 45.8347 96.4602 45.8347C95.7362 45.8347 94.9576 45.7347 94.1305 45.5378C93.2732 45.3348 92.4764 44.947 91.7493 44.3805C91.0071 43.8049 90.4012 43.0172 89.9195 42.0387C89.4287 41.0147 89.1924 39.706 89.1924 38.1367C89.1924 36.5674 89.4378 35.3889 89.9528 34.4013C90.4527 33.4409 91.0798 32.6684 91.8402 32.0928C92.5855 31.5293 93.3762 31.1415 94.2123 30.9385C95.0394 30.7204 95.7877 30.6113 96.4602 30.6113C97.2752 30.6113 98.0325 30.7022 98.7384 30.881C99.4382 31.0597 100.029 31.3021 100.511 31.6171C100.892 31.8565 101.183 32.1019 101.359 32.3775C101.559 32.6532 101.65 32.9683 101.65 33.3197C101.65 33.6711 101.541 34.0438 101.362 34.4679C101.177 34.8799 100.938 35.2647 100.65 35.6161L100.405 35.916L100.138 35.6343C99.8654 35.3434 99.4473 35.0375 98.8657 34.7194C98.3234 34.4225 97.7175 34.271 97.0389 34.271C95.8392 34.271 95.0606 34.6406 94.6061 35.3071C94.1184 36.0039 93.8579 36.9249 93.8579 38.0852C93.8579 38.6759 93.9124 39.2303 94.0245 39.7453C94.1305 40.2482 94.3062 40.6754 94.5486 41.0359C94.8061 41.3964 95.1272 41.6752 95.5211 41.8812C95.9028 42.0811 96.3936 42.1902 97.0086 42.1902C97.4054 42.1902 97.7599 42.1447 98.0719 42.0599" fill="#1C1C1C"/>
<path d="M112.75 30.956C113.047 30.9166 113.331 30.8984 113.607 30.8984C113.962 30.8984 114.304 30.9409 114.64 31.0226C115.007 31.1075 115.322 31.2468 115.595 31.4528C115.897 31.6619 116.128 31.9436 116.303 32.2951C116.491 32.6495 116.573 33.0827 116.573 33.5765V45.3462H113.607C113.092 45.3462 112.604 45.2008 112.377 44.7797C112.314 44.6313 112.265 44.4616 112.232 44.2708C111.929 44.5343 111.562 44.7827 111.144 45.016C110.402 45.4189 109.436 45.6068 108.266 45.6068C106.866 45.6068 105.761 45.3341 105.018 44.7222C104.3 44.1314 103.84 43.3498 103.631 42.3955C103.531 41.938 103.461 41.4351 103.422 40.8989C103.404 40.3748 103.392 39.8537 103.392 39.3508V30.9863H103.731C103.852 30.9863 103.979 30.9772 104.119 30.9621C104.264 30.9409 104.403 30.9318 104.546 30.9287C104.706 30.9106 104.858 30.9015 105 30.9015C105.818 30.9015 106.521 31.0741 107.094 31.4468C107.727 31.8618 108 32.5829 108 33.4917V39.1781C108 39.5962 108.009 39.9749 108.027 40.3354C108.063 40.6747 108.133 40.9504 108.233 41.1806C108.333 41.3594 108.484 41.5048 108.693 41.626C108.917 41.726 109.251 41.7835 109.708 41.7835C110.375 41.7835 110.917 41.6502 111.353 41.3957C111.811 41.1231 111.962 40.8444 111.962 40.5656V31.0075L112.744 30.959L112.75 30.956Z" fill="#1C1C1C"/>
<path d="M129.446 34.1258C129.267 34.5257 129.07 34.8983 128.849 35.2558L128.646 35.586L128.343 35.3437C128.17 35.2073 127.937 35.0558 127.661 34.9104C127.413 34.7499 127.107 34.5984 126.78 34.4681C126.449 34.3227 126.095 34.1985 125.728 34.1076C125.392 34.0197 125.044 33.9743 124.686 33.9743C124.492 33.9743 124.277 33.9955 124.065 34.0288C123.874 34.044 123.683 34.0955 123.532 34.1712C123.417 34.2227 123.302 34.3106 123.196 34.4439C123.138 34.5196 123.093 34.6469 123.093 34.871C123.093 35.2285 123.486 35.6648 124.929 35.9799C125.519 36.098 126.095 36.2525 126.664 36.4525C127.276 36.6342 127.813 36.8978 128.288 37.2522C128.794 37.6097 129.188 38.0581 129.482 38.6034C129.809 39.1699 129.958 39.8516 129.958 40.6453C129.958 41.4391 129.797 42.1964 129.461 42.8478C129.149 43.49 128.715 44.0293 128.152 44.4655C127.594 44.8988 126.94 45.226 126.195 45.4471C125.465 45.6683 124.674 45.7804 123.817 45.7804C122.959 45.7804 122.208 45.7137 121.581 45.5713C120.987 45.4532 120.487 45.3047 120.072 45.1169C119.787 44.9957 119.466 44.817 119.121 44.5928C118.727 44.2959 118.512 43.8809 118.512 43.3901C118.512 42.9932 118.627 42.6054 118.842 42.2176C119.039 41.842 119.263 41.4633 119.521 41.0695L119.736 40.7362L120.033 40.9998C120.196 41.1452 120.399 41.2997 120.636 41.4633C120.89 41.6087 121.175 41.7511 121.481 41.8965C121.808 42.0238 122.153 42.1298 122.514 42.2207C122.871 42.3116 123.238 42.354 123.614 42.354C123.847 42.354 124.092 42.3358 124.344 42.2994C124.577 42.2661 124.768 42.1964 124.916 42.1086C125.083 42.0177 125.222 41.8935 125.325 41.7481C125.41 41.6269 125.465 41.4512 125.465 41.1937C125.465 40.7453 125.292 40.4726 124.977 40.309C124.604 40.0879 123.995 39.8819 123.141 39.7092C122.565 39.591 122.011 39.4305 121.475 39.2336C120.927 39.0306 120.43 38.761 119.996 38.4307C119.554 38.0733 119.191 37.6249 118.921 37.1038C118.663 36.5645 118.539 35.9193 118.539 35.1891C118.539 34.459 118.706 33.7774 119.048 33.1957C119.381 32.6353 119.818 32.1566 120.354 31.7658C120.911 31.375 121.545 31.0872 122.253 30.9054C122.959 30.7024 123.686 30.6055 124.45 30.6055C125.213 30.6055 125.946 30.6661 126.561 30.7842C127.195 30.9024 127.746 31.0629 128.219 31.2659C129.103 31.6295 129.703 32.1657 129.755 32.9231C129.755 33.2836 129.639 33.6895 129.433 34.1167" fill="#1C1C1C"/>
<path d="M73.2084 20.5109C73.1205 20.5988 72.9539 20.7381 72.7085 20.932C72.4631 21.1259 72.1299 21.3198 71.7088 21.5106C71.3058 21.7045 70.812 21.8712 70.2334 22.0105C69.6699 22.168 69.0125 22.2468 68.2581 22.2468C66.907 22.2468 65.7376 22.0196 64.753 21.5621C63.7684 21.1047 62.9625 20.4745 62.3293 19.6657C61.6962 18.8568 61.2327 17.8904 60.9327 16.7664C60.6358 15.6425 60.4844 14.4216 60.4844 13.1037C60.4844 11.7859 60.6328 10.565 60.9327 9.44102C61.2478 8.29889 61.7234 7.32338 62.3566 6.51753C63.008 5.69047 63.8138 5.05123 64.7802 4.59378C65.7648 4.12117 66.9312 3.88184 68.2854 3.88184C68.9701 3.88184 69.6275 3.9606 70.2606 4.11814C70.8938 4.27567 71.4452 4.47865 71.9208 4.72404C72.4116 4.96944 72.7994 5.2421 73.0811 5.54202C73.3811 5.83891 73.5295 6.12066 73.5295 6.38423C73.5295 6.61144 73.4507 6.85986 73.2932 7.12343C73.1538 7.36882 73.0024 7.58997 72.8448 7.78083H72.3692C72.1753 7.56877 71.9481 7.35065 71.6845 7.12343C71.4391 6.89622 71.1483 6.69324 70.815 6.51753C70.4818 6.34181 70.1031 6.20245 69.682 6.09642C69.2609 5.97221 68.7944 5.91162 68.2854 5.91162C67.2311 5.91162 66.3526 6.12369 65.6497 6.54479C64.965 6.94772 64.4106 7.49303 63.9895 8.1777C63.5866 8.8442 63.2958 9.61067 63.12 10.4711C62.9443 11.3133 62.8565 12.1827 62.8565 13.0795C62.8565 13.9762 62.9443 14.879 63.12 15.7394C63.3139 16.5998 63.629 17.3723 64.0683 18.057C64.5076 18.7265 65.0862 19.2597 65.8072 19.6657C66.5283 20.0686 67.425 20.2716 68.4944 20.2716C69.0731 20.2716 69.6002 20.1928 70.0758 20.0353C70.5515 19.8596 70.9544 19.6566 71.2877 19.4294C71.6391 19.2021 71.9299 18.981 72.1571 18.7719C72.3843 18.5599 72.5449 18.4024 72.6297 18.2963C72.8236 18.4539 73.0236 18.6841 73.2356 18.981C73.4629 19.2627 73.578 19.5081 73.578 19.7172C73.578 19.8747 73.5416 20.0171 73.4719 20.1383C73.4023 20.2443 73.3144 20.3655 73.2084 20.5079" fill="#1C1C1C"/>
<path d="M82.2729 15.6082H81.5094C80.949 15.6082 80.3764 15.6446 79.7978 15.7143C79.2191 15.784 78.692 15.9173 78.2163 16.1081C77.7407 16.302 77.356 16.5747 77.056 16.9261C76.7561 17.2593 76.6077 17.7077 76.6077 18.2712C76.6077 18.7983 76.7652 19.2649 77.0803 19.6678C77.3984 20.0707 77.9861 20.2737 78.8465 20.2737C79.3039 20.2737 79.7341 20.2131 80.1371 20.0889C80.5582 19.9495 80.9278 19.7799 81.2428 19.589C81.5579 19.3951 81.8033 19.1861 81.979 18.9559C82.1729 18.7287 82.2698 18.5075 82.2698 18.2985V15.6113L82.2729 15.6082ZM84.4572 18.9801C84.4572 19.4012 84.4753 19.7345 84.5087 19.9798C84.545 20.2071 84.6056 20.3828 84.6935 20.507C84.7995 20.613 84.9298 20.6827 85.0873 20.7191C85.263 20.7554 85.4811 20.7706 85.7447 20.7706V21.8248C85.5872 21.8763 85.3933 21.9218 85.1661 21.9551C84.9389 21.9915 84.6995 22.0066 84.4541 22.0066C83.9088 22.0066 83.4362 21.9006 83.0303 21.6915C82.6273 21.4643 82.391 21.0674 82.3183 20.507C81.879 20.9463 81.3519 21.325 80.7369 21.64C80.1219 21.9369 79.313 22.0884 78.3133 22.0884C77.8558 22.0884 77.3923 22.0369 76.9167 21.9309C76.4592 21.8248 76.0381 21.634 75.6534 21.3522C75.2838 21.0705 74.9778 20.6948 74.7324 20.2192C74.487 19.7435 74.3628 19.1376 74.3628 18.4015C74.3628 17.4865 74.59 16.7413 75.0475 16.1626C75.5231 15.584 76.1017 15.1265 76.7864 14.7933C77.4711 14.46 78.2012 14.2298 78.9737 14.1086C79.7644 13.9844 80.4855 13.9147 81.1338 13.8996H81.6882C81.9003 13.8996 82.082 13.9087 82.2426 13.9269V13.53C82.2426 12.7393 82.0487 12.1425 81.6639 11.7395C81.2943 11.3184 80.5763 11.1064 79.5039 11.1064C78.7132 11.1064 78.0467 11.2124 77.5014 11.4214C76.9561 11.6153 76.4289 11.888 75.92 12.2394H75.6564C75.517 12.0122 75.3928 11.7638 75.2868 11.5032C75.1989 11.2397 75.1535 11.0276 75.1535 10.8701C75.1535 10.6429 75.2959 10.4308 75.5746 10.2369C75.8563 10.0248 76.2168 9.84305 76.6561 9.68249C77.1136 9.52495 77.6135 9.40074 78.1588 9.31288C78.7041 9.22503 79.2403 9.18262 79.7675 9.18262C80.6642 9.18262 81.4095 9.27956 82.0063 9.47345C82.6031 9.66734 83.0878 9.95515 83.4544 10.3429C83.824 10.7307 84.0785 11.2124 84.2178 11.791C84.3754 12.3697 84.4541 13.0392 84.4541 13.7936V18.9831L84.4572 18.9801Z" fill="#1C1C1C"/>
<path d="M87.6199 9.38882C88.0228 9.38882 88.3833 9.49486 88.7014 9.70389C89.0347 9.89778 89.2377 10.2401 89.3073 10.7309C89.7103 10.328 90.2556 9.96746 90.9403 9.64936C91.6431 9.33429 92.4671 9.17676 93.4154 9.17676C94.609 9.17676 95.5239 9.44032 96.1541 9.96746C96.7872 10.4946 97.1993 11.152 97.3931 11.9427C97.481 12.2941 97.5325 12.691 97.5507 13.1273C97.5689 13.5484 97.578 13.9604 97.578 14.3663V21.8493H95.3391V14.4451C95.3391 14.1118 95.33 13.7937 95.3119 13.4969C95.3119 13.1818 95.2695 12.891 95.1816 12.6274C95.0574 12.1699 94.8029 11.8185 94.4181 11.5731C94.0304 11.3277 93.4608 11.2035 92.7065 11.2035C91.7037 11.2035 90.9069 11.4065 90.3101 11.8094C89.7133 12.1972 89.4134 12.6183 89.4134 13.0758V21.8493H87.1746V9.41306H87.4381C87.5078 9.39488 87.5684 9.3858 87.6229 9.3858" fill="#1C1C1C"/>
<path d="M105.643 20.3536C106.118 20.3536 106.539 20.2839 106.906 20.1415C107.294 19.984 107.618 19.8082 107.882 19.6143C108.197 19.4023 108.478 19.1569 108.724 18.8751C108.863 19.0145 109.039 19.2357 109.251 19.5326C109.478 19.8143 109.593 20.0779 109.593 20.3233C109.593 20.5686 109.408 20.8504 109.039 21.1685C108.706 21.4654 108.221 21.7229 107.591 21.9319C106.976 22.144 106.221 22.247 105.325 22.247C104.761 22.247 104.14 22.1682 103.452 22.0107C102.786 21.8532 102.153 21.5381 101.556 21.0625C100.977 20.5868 100.483 19.9294 100.081 19.0872C99.6776 18.2268 99.4746 17.0938 99.4746 15.6881C99.4746 14.3884 99.6867 13.316 100.108 12.4738C100.529 11.6316 101.047 10.9711 101.662 10.4985C102.277 10.0077 102.925 9.66539 103.61 9.47151C104.313 9.27762 104.928 9.18066 105.455 9.18066C106.088 9.18066 106.649 9.25035 107.142 9.39273C107.651 9.51695 108.081 9.68357 108.433 9.8926C108.803 10.0865 109.084 10.2955 109.275 10.5258C109.469 10.753 109.566 10.9741 109.566 11.1832C109.566 11.3922 109.496 11.6316 109.354 11.8951C109.215 12.1587 109.072 12.3859 108.933 12.5798H108.642C108.342 12.2284 107.957 11.9042 107.482 11.6043C107.006 11.2892 106.367 11.1287 105.558 11.1287C104.891 11.1287 104.319 11.2438 103.846 11.471C103.371 11.6982 102.977 12.0254 102.662 12.4465C102.362 12.8494 102.144 13.3341 102.004 13.8976C101.865 14.443 101.792 15.0307 101.792 15.6639C101.792 16.297 101.862 16.9272 102.004 17.5088C102.144 18.0693 102.365 18.5631 102.662 18.9842C102.977 19.4053 103.383 19.7386 103.873 19.984C104.364 20.2293 104.955 20.3536 105.64 20.3536" fill="#1C1C1C"/>
<path d="M118.842 14.3966C118.842 13.921 118.791 13.4817 118.685 13.0788C118.597 12.6759 118.439 12.3244 118.209 12.0245C117.982 11.7064 117.673 11.461 117.288 11.2853C116.919 11.1096 116.464 11.0217 115.919 11.0217C115.007 11.0217 114.25 11.3217 113.653 11.9185C113.074 12.5153 112.747 13.3423 112.677 14.3966H118.842ZM116.579 20.3527C117.088 20.3527 117.527 20.3012 117.897 20.1951C118.285 20.0891 118.609 19.9588 118.873 19.8013C119.154 19.6438 119.391 19.4862 119.585 19.3257C119.778 19.15 119.936 18.9924 120.057 18.85C120.251 19.0954 120.418 19.359 120.557 19.6407C120.715 19.9225 120.793 20.1406 120.793 20.2981C120.793 20.4375 120.748 20.589 120.663 20.7465C120.575 20.8859 120.427 21.0373 120.215 21.1949C119.812 21.4948 119.294 21.7402 118.661 21.9311C118.027 22.1431 117.264 22.2461 116.367 22.2461C115.543 22.2461 114.762 22.1219 114.022 21.8765C113.301 21.6493 112.671 21.2706 112.126 20.7435C111.581 20.2163 111.15 19.5317 110.835 18.6895C110.517 17.8291 110.36 16.7839 110.36 15.5539C110.36 14.4481 110.517 13.4908 110.835 12.6819C111.169 11.873 111.599 11.2156 112.126 10.7067C112.653 10.1795 113.25 9.79175 113.916 9.54636C114.601 9.30097 115.304 9.17676 116.025 9.17676C116.922 9.17676 117.685 9.3252 118.318 9.62512C118.97 9.92504 119.494 10.328 119.9 10.8369C120.303 11.3277 120.602 11.9094 120.796 12.5759C120.99 13.2242 121.087 13.9028 121.087 14.6057C121.087 14.8511 121.078 15.1055 121.06 15.3691C121.06 15.6145 121.042 15.8508 121.008 16.081H112.683C112.735 17.3625 113.071 18.3986 113.686 19.1893C114.319 19.9619 115.286 20.3496 116.585 20.3496" fill="#1C1C1C"/>
<path d="M123.323 9.3897C123.726 9.3897 124.086 9.49574 124.404 9.70478C124.738 9.89866 124.941 10.2319 125.01 10.7075C125.256 10.3379 125.625 9.99561 126.116 9.68054C126.607 9.3473 127.18 9.18066 127.828 9.18066C128.022 9.18066 128.225 9.19885 128.434 9.23217C128.661 9.26852 128.873 9.32911 129.067 9.41697C129.261 9.48665 129.418 9.59268 129.543 9.73204C129.667 9.8714 129.727 10.0562 129.727 10.2864C129.727 10.5682 129.658 10.8742 129.515 11.2074C129.376 11.5225 129.234 11.7861 129.094 11.9981C128.867 11.7861 128.622 11.6285 128.355 11.5225C128.091 11.4013 127.758 11.3377 127.355 11.3377C127.055 11.3377 126.768 11.3892 126.486 11.4952C126.222 11.5831 125.986 11.7133 125.774 11.8891C125.562 12.0466 125.395 12.2314 125.274 12.4435C125.15 12.6555 125.089 12.8737 125.089 13.1009V21.8471H122.85V9.41091H123.193C123.244 9.39273 123.29 9.38365 123.326 9.38365" fill="#1C1C1C"/>
<path d="M61.3873 51.0964C61.3237 50.9934 61.2601 50.9237 61.1874 50.8813C61.1177 50.8388 61.0207 50.8176 60.8965 50.8176C60.8329 50.8176 60.7723 50.8207 60.7117 50.8298C60.6481 50.8388 60.6027 50.8479 60.5693 50.86V56.504H61.254V52.1143L64.1321 56.504H64.8167V51.3508C64.8167 51.2387 64.8016 51.1448 64.7713 51.0751C64.741 51.0055 64.7016 50.9509 64.6531 50.9146C64.6047 50.8782 64.5532 50.854 64.4956 50.8389C64.438 50.8237 64.3865 50.8176 64.335 50.8176C64.3078 50.8176 64.2805 50.8176 64.2532 50.8207C64.229 50.8237 64.2078 50.8237 64.1896 50.8237C64.1654 50.8297 64.1472 50.8328 64.129 50.8328V55.3771L61.3873 51.0964ZM70.5335 52.5111C70.4426 52.1567 70.3002 51.8477 70.1063 51.5841C69.9124 51.3236 69.664 51.1145 69.361 50.9631C69.0581 50.8116 68.6976 50.7358 68.2734 50.7358C67.8493 50.7358 67.4645 50.8146 67.1525 50.9722C66.8374 51.1297 66.5799 51.3417 66.3769 51.6114C66.174 51.878 66.0255 52.19 65.9286 52.5414C65.8316 52.8929 65.7862 53.2655 65.7862 53.6533C65.7862 54.0411 65.8286 54.4167 65.9165 54.7802C66.0043 55.1408 66.1437 55.4589 66.3345 55.7315C66.5254 56.0072 66.7768 56.2223 67.0828 56.3889C67.3888 56.5525 67.7614 56.6343 68.1946 56.6343C68.6279 56.6343 69.0126 56.5525 69.3247 56.392C69.6367 56.2314 69.8942 56.0163 70.0911 55.7437C70.2881 55.474 70.4335 55.1559 70.5274 54.7954C70.6213 54.4349 70.6668 54.0501 70.6668 53.6442C70.6668 53.2382 70.6213 52.8656 70.5304 52.5111M69.8124 54.5288C69.7549 54.8075 69.664 55.0559 69.5337 55.2741C69.4034 55.4922 69.2308 55.6649 69.0157 55.7891C68.8006 55.9133 68.54 55.9799 68.228 55.9799C67.9159 55.9799 67.6493 55.9163 67.4373 55.7891C67.2252 55.6618 67.0555 55.4892 66.9253 55.2741C66.795 55.0559 66.7011 54.8075 66.6466 54.5288C66.589 54.2501 66.5617 53.9562 66.5617 53.6533C66.5617 53.3503 66.589 53.0625 66.6466 52.7899C66.7041 52.5202 66.798 52.2809 66.9313 52.0749C67.0646 51.8689 67.2373 51.7083 67.4524 51.5902C67.6675 51.472 67.9341 51.4114 68.2552 51.4114C68.5612 51.4114 68.8187 51.472 69.0278 51.5902C69.2398 51.7083 69.4095 51.8719 69.5367 52.0749C69.664 52.2809 69.7549 52.5202 69.8124 52.7899C69.867 53.0595 69.8972 53.3473 69.8972 53.6533C69.8972 53.9593 69.87 54.2501 69.8124 54.5288ZM74.6354 51.1782C74.2961 50.9146 73.7417 50.7843 72.9692 50.7843C72.7541 50.7843 72.5299 50.7904 72.2966 50.8025C72.0634 50.8146 71.8452 50.8328 71.6422 50.86V56.504H72.3784V54.1865H73.1298L74.4506 56.2496C74.59 56.4707 74.7899 56.5798 75.0505 56.5798C75.1141 56.5798 75.1807 56.5737 75.2535 56.5646C75.3262 56.5525 75.3928 56.5343 75.4473 56.504L73.8993 54.0532C74.0689 54.0138 74.2264 53.9502 74.3779 53.8593C74.5264 53.7684 74.6597 53.6563 74.7718 53.52C74.8838 53.3836 74.9747 53.2231 75.0414 53.0383C75.108 52.8535 75.1413 52.6414 75.1413 52.4051C75.1413 51.8507 74.9717 51.4447 74.6354 51.1812M74.2719 52.9625C74.2052 53.1049 74.1083 53.2201 73.9841 53.3109C73.8599 53.4018 73.7145 53.4685 73.5448 53.5079C73.3751 53.5472 73.1873 53.5684 72.9783 53.5684H72.3693V51.4357H72.3512C72.436 51.4235 72.5299 51.4144 72.6299 51.4084C72.7299 51.4023 72.851 51.3993 72.9843 51.3993C73.1934 51.3993 73.3842 51.4145 73.5569 51.4417C73.7296 51.469 73.875 51.5235 73.9962 51.5992C74.1174 51.675 74.2113 51.781 74.2749 51.9174C74.3385 52.0537 74.3719 52.2264 74.3719 52.4384C74.3719 52.6505 74.3385 52.8171 74.2689 52.9595M77.1833 56.504H77.9376V51.4872H79.2736C79.4493 51.4872 79.5796 51.4447 79.6614 51.3569C79.7462 51.269 79.7886 51.163 79.7886 51.0388C79.7886 51.0206 79.7886 51.0024 79.7856 50.9843C79.7826 50.9661 79.7826 50.9449 79.7826 50.9206C79.7765 50.8994 79.7735 50.8722 79.7735 50.8449H75.8806C75.7048 50.8449 75.5746 50.8873 75.4928 50.9661C75.408 51.0479 75.3655 51.1418 75.3655 51.2509V51.3357C75.3655 51.3629 75.3655 51.3902 75.3746 51.4114C75.3807 51.4326 75.3867 51.4599 75.3928 51.4872H77.1863V56.504H77.1833ZM81.058 51.3508C81.058 51.2387 81.0398 51.1448 81.0065 51.0751C80.9732 51.0055 80.9308 50.9509 80.8793 50.9146C80.8278 50.8782 80.7732 50.854 80.7096 50.8389C80.649 50.8237 80.5884 50.8176 80.5309 50.8176C80.5036 50.8176 80.4764 50.8176 80.4551 50.8207C80.4339 50.8237 80.4097 50.8237 80.3885 50.8237C80.3673 50.8297 80.3431 50.8328 80.3218 50.8328V56.501H81.058V53.8775H83.7482V56.501H84.4844V51.3478C84.4844 51.2357 84.4662 51.1418 84.4299 51.0721C84.3935 51.0024 84.3481 50.9479 84.2936 50.9116C84.239 50.8752 84.1845 50.851 84.1239 50.8358C84.0633 50.8207 84.0088 50.8146 83.9573 50.8146C83.93 50.8146 83.9027 50.8146 83.8815 50.8176C83.8573 50.8207 83.8361 50.8207 83.8149 50.8207C83.7937 50.8267 83.7694 50.8298 83.7482 50.8298V53.2322H81.058V51.3448V51.3508ZM86.3385 51.4781H88.3683C88.5652 51.4781 88.7015 51.4357 88.7742 51.3478C88.8469 51.26 88.8833 51.1509 88.8833 51.0206V50.9328C88.8833 50.9085 88.8772 50.8782 88.8651 50.8449H85.5993V56.504H89.0014V56.4435C89.0014 56.4253 89.0014 56.4101 89.0045 56.3889C89.0045 56.3677 89.0075 56.3496 89.0075 56.3253C89.0075 56.195 88.9651 56.086 88.8863 55.9981C88.8045 55.9103 88.6712 55.8679 88.4834 55.8679H86.3354V53.8714H88.2562V53.2201H86.3354V51.4781H86.3385ZM92.7005 51.1782C92.3612 50.9146 91.8068 50.7843 91.0342 50.7843C90.8192 50.7843 90.595 50.7904 90.3617 50.8025C90.1284 50.8146 89.9103 50.8328 89.7043 50.86V56.504H90.4405V54.1865H91.1948L92.5157 56.2496C92.6581 56.4707 92.858 56.5798 93.1155 56.5798C93.1761 56.5798 93.2458 56.5737 93.3185 56.5646C93.3912 56.5525 93.4579 56.5343 93.5124 56.504L91.9643 54.0532C92.134 54.0138 92.2915 53.9502 92.443 53.8593C92.5914 53.7684 92.7247 53.6563 92.8368 53.52C92.9489 53.3836 93.0398 53.2231 93.1065 53.0383C93.1731 52.8535 93.2064 52.6414 93.2064 52.4051C93.2064 51.8507 93.0368 51.4447 92.7005 51.1812M92.3369 52.9625C92.2703 53.1049 92.1734 53.2201 92.0492 53.3109C91.9249 53.4018 91.7795 53.4685 91.6099 53.5079C91.4402 53.5472 91.2524 53.5684 91.0433 53.5684H90.4344V51.4357H90.4162C90.5011 51.4235 90.595 51.4144 90.6949 51.4084C90.7979 51.4023 90.9161 51.3993 91.0494 51.3993C91.2584 51.3993 91.4493 51.4145 91.622 51.4417C91.7947 51.469 91.9401 51.5235 92.0613 51.5992C92.1824 51.675 92.2764 51.781 92.34 51.9174C92.4066 52.0537 92.4369 52.2264 92.4369 52.4384C92.4369 52.6505 92.4036 52.8171 92.3369 52.9595M95.0181 51.0964C94.9545 50.9934 94.8908 50.9237 94.8181 50.8813C94.7484 50.8388 94.6515 50.8176 94.5273 50.8176C94.4637 50.8176 94.4031 50.8207 94.3395 50.8298C94.2789 50.8388 94.2304 50.8479 94.1971 50.86V56.504H94.8817V52.1143L97.7598 56.504H98.4445V51.3508C98.4445 51.2387 98.4293 51.1448 98.399 51.0751C98.3687 51.0055 98.3293 50.9509 98.2809 50.9146C98.2324 50.8782 98.1809 50.854 98.1233 50.8389C98.0658 50.8237 98.0143 50.8176 97.9628 50.8176C97.9355 50.8176 97.9083 50.8176 97.881 50.8207C97.8568 50.8237 97.8355 50.8237 97.8174 50.8237C97.7931 50.8297 97.7749 50.8328 97.7568 50.8328V55.3771L95.015 51.0964H95.0181ZM101.78 51.3508C101.78 51.2387 101.762 51.1448 101.725 51.0751C101.689 51.0055 101.641 50.9509 101.583 50.9146C101.525 50.8782 101.468 50.854 101.407 50.8389C101.347 50.8237 101.292 50.8176 101.241 50.8176C101.213 50.8176 101.186 50.8176 101.165 50.8207C101.144 50.8237 101.12 50.8237 101.095 50.8237C101.071 50.8297 101.05 50.8328 101.026 50.8328V56.501H101.78V51.3478V51.3508ZM105.867 51.1782C105.528 50.9146 104.973 50.7843 104.201 50.7843C103.985 50.7843 103.761 50.7904 103.528 50.8025C103.295 50.8146 103.077 50.8328 102.874 50.86V56.504H103.61V54.1865H104.364L105.685 56.2496C105.827 56.4707 106.024 56.5798 106.285 56.5798C106.349 56.5798 106.415 56.5737 106.488 56.5646C106.561 56.5525 106.627 56.5343 106.682 56.504L105.134 54.0532C105.303 54.0138 105.461 53.9502 105.612 53.8593C105.761 53.7684 105.894 53.6563 106.006 53.52C106.118 53.3836 106.209 53.2231 106.276 53.0383C106.342 52.8535 106.379 52.6414 106.379 52.4051C106.379 51.8507 106.209 51.4447 105.87 51.1812M105.503 52.9625C105.437 53.1049 105.34 53.2201 105.215 53.3109C105.091 53.4018 104.946 53.4685 104.776 53.5079C104.607 53.5472 104.419 53.5684 104.21 53.5684H103.601V51.4357H103.583C103.667 51.4235 103.761 51.4144 103.861 51.4084C103.964 51.4023 104.082 51.3993 104.216 51.3993C104.425 51.3993 104.616 51.4145 104.788 51.4417C104.961 51.469 105.106 51.5235 105.228 51.5992C105.349 51.675 105.443 51.781 105.506 51.9174C105.57 52.0537 105.603 52.2264 105.603 52.4384C105.603 52.6505 105.57 52.8171 105.5 52.9595M108.09 51.4781H110.12C110.317 51.4781 110.454 51.4357 110.526 51.3478C110.599 51.26 110.635 51.1509 110.635 51.0206V50.9328C110.635 50.9085 110.629 50.8782 110.617 50.8449H107.351V56.504H110.753V56.4435C110.753 56.4253 110.753 56.4101 110.756 56.3889C110.76 56.3677 110.76 56.3496 110.76 56.3253C110.76 56.195 110.72 56.086 110.635 55.9981C110.553 55.9103 110.42 55.8679 110.232 55.8679H108.081V53.8714H110.002V53.2201H108.081V51.4781H108.09ZM111.45 56.504H114.649V56.4435C114.649 56.4253 114.649 56.4071 114.652 56.3829C114.652 56.3617 114.655 56.3344 114.655 56.3071C114.655 56.1829 114.616 56.0769 114.537 55.989C114.459 55.9012 114.328 55.8588 114.146 55.8588H112.183V51.3478C112.183 51.2357 112.165 51.1418 112.129 51.0721C112.093 51.0024 112.047 50.9479 111.993 50.9116C111.938 50.8752 111.883 50.851 111.823 50.8358C111.762 50.8207 111.708 50.8146 111.656 50.8146C111.629 50.8146 111.602 50.8146 111.58 50.8176C111.559 50.8207 111.535 50.8207 111.514 50.8207C111.493 50.8267 111.468 50.8298 111.447 50.8298V56.498L111.45 56.504ZM119.733 56.504L117.779 51.166C117.727 51.0297 117.658 50.9388 117.573 50.8903C117.485 50.8419 117.388 50.8176 117.282 50.8176C117.203 50.8176 117.125 50.8267 117.046 50.8419C116.967 50.86 116.906 50.8752 116.867 50.8934L114.819 56.504H115.564L116.116 54.9802H118.4L118.966 56.504H119.736H119.733ZM118.203 54.3804H116.3L117.258 51.6811L118.206 54.3804H118.203ZM121.196 51.0964C121.133 50.9934 121.069 50.9237 120.996 50.8813C120.927 50.8388 120.83 50.8176 120.705 50.8176C120.642 50.8176 120.581 50.8207 120.521 50.8298C120.46 50.8388 120.412 50.8479 120.378 50.86V56.504H121.063V52.1143L123.938 56.504H124.623V51.3508C124.623 51.2387 124.607 51.1448 124.577 51.0751C124.547 51.0055 124.507 50.9509 124.459 50.9146C124.411 50.8782 124.359 50.854 124.301 50.8389C124.244 50.8237 124.192 50.8176 124.141 50.8176C124.114 50.8176 124.086 50.8176 124.059 50.8207C124.035 50.8237 124.014 50.8237 123.995 50.8237C123.971 50.8297 123.953 50.8328 123.935 50.8328V55.3771L121.193 51.0964H121.196ZM129.861 52.493C129.77 52.1537 129.615 51.8598 129.4 51.6053C129.182 51.3508 128.894 51.1509 128.534 51.0055C128.173 50.8601 127.722 50.7843 127.18 50.7843C126.983 50.7843 126.771 50.7904 126.54 50.8025C126.313 50.8146 126.05 50.8358 125.75 50.8691V56.504H127.07C127.482 56.504 127.843 56.4616 128.155 56.3829C128.464 56.3011 128.731 56.1799 128.949 56.0224C129.309 55.7558 129.576 55.4104 129.746 54.9863C129.915 54.5591 130 54.0895 130 53.5775C130 53.1928 129.955 52.8323 129.864 52.493M129.137 54.5076C129.067 54.7803 128.949 55.0196 128.788 55.2226C128.628 55.4255 128.416 55.5861 128.152 55.7073C127.888 55.8254 127.567 55.886 127.189 55.886H126.486V51.4781C126.604 51.4599 126.725 51.4508 126.846 51.4448C126.967 51.4387 127.086 51.4357 127.198 51.4357C127.595 51.4357 127.925 51.4902 128.185 51.5962C128.449 51.7023 128.658 51.8537 128.819 52.0507C128.976 52.2446 129.088 52.4778 129.149 52.7474C129.212 53.0171 129.243 53.3079 129.243 53.626C129.243 53.9441 129.206 54.238 129.137 54.5106" fill="#2BA4B9"/>
</svg>
