<svg width="50" height="60" viewBox="0 0 50 60" fill="none" xmlns="http://www.w3.org/2000/svg">
<mask id="mask0_5611_9052" style="mask-type:alpha" maskUnits="userSpaceOnUse" x="0" y="10" width="49" height="50">
<ellipse cx="24.2608" cy="34.9642" rx="24.2608" ry="24.2608" fill="#D9D9D9"/>
</mask>
<g mask="url(#mask0_5611_9052)">
<ellipse cx="24.2608" cy="34.9642" rx="24.2608" ry="24.2608" fill="white"/>
<path d="M-4.95108 44.6443L-4.954 44.6355L-4.95725 44.6269C-5.28865 43.7432 -4.86477 42.7801 -3.9332 42.3647L14.4785 35.6959L14.9498 35.5252L14.7779 35.0544L7.81312 15.9736L7.8105 15.9665L7.80767 15.9594C7.48553 15.1541 7.90329 14.2019 8.82489 13.8563L8.82493 13.8565L8.83503 13.8524C9.63975 13.5305 10.591 13.9474 10.9373 14.8675C10.9375 14.8682 10.9378 14.8689 10.9381 14.8696L18.6263 35.9762L18.6268 35.9773L28.2755 62.6747L28.2784 62.6826L28.2815 62.6904C28.6027 63.4933 28.1885 64.442 27.2728 64.7902C27.0713 64.8567 26.8476 64.9067 26.7143 64.9067C26.0475 64.9067 25.3759 64.4534 25.1573 63.7976L25.1575 63.7975L25.1528 63.7847L16.2291 39.2627L16.0584 38.7936L15.589 38.9636L-2.83242 45.6359C-3.03475 45.7029 -3.26004 45.7534 -3.39401 45.7534C-4.06085 45.7534 -4.73248 45.3001 -4.95108 44.6443Z" fill="#A1D3E0" stroke="white"/>
<path d="M21.0928 17.3299L21.2628 17.8018L21.7342 17.6304L26.5157 15.8917C27.3204 15.6274 28.2955 16.1114 28.6443 16.9834C28.9661 17.788 28.5494 18.7391 27.6296 19.0855L20.819 21.5489C20.6167 21.6159 20.3914 21.6665 20.2574 21.6665C19.5906 21.6665 18.9189 21.2131 18.7003 20.5574L18.7004 20.5573L18.6971 20.5479L16.0127 13.0026L16.0095 12.9935L16.0059 12.9845C15.6837 12.1792 16.1015 11.2271 17.0231 10.8815L17.0231 10.8816L17.0332 10.8776C17.8377 10.5558 18.7887 10.9723 19.1352 11.8919L21.0928 17.3299Z" fill="#A1D3E0" stroke="white"/>
<path d="M21.6703 28.6698L21.6704 28.6698L21.6671 28.6614C21.6276 28.5588 21.4009 27.9325 21.725 27.2876L21.7254 27.2868C21.9953 26.7475 22.4786 26.5325 22.613 26.4787L32.8241 22.7129C33.7542 22.4279 34.6858 22.837 35.0199 23.7077C35.3051 24.6418 34.8905 25.5768 34.0115 25.9064L25.8859 28.9535L25.4226 29.1272L25.5915 29.5923L30.3073 42.5788L30.4784 43.05L30.9491 42.8777L56.1222 33.6645L56.124 33.6638L62.942 31.1978L62.9498 31.1949L62.9576 31.1918C63.7629 30.8697 64.715 31.2874 65.0606 32.209L65.0605 32.2091L65.0646 32.2192C65.3864 33.0239 64.9696 33.9751 64.0496 34.3214C64.0488 34.3217 64.0481 34.3219 64.0474 34.3222L59.2637 36.0617L58.7938 36.2326L58.9647 36.7025L60.7059 41.4908L60.7086 41.4982L60.7116 41.5056C61.0327 42.3085 60.6185 43.2572 59.7028 43.6054C59.5013 43.6719 59.2777 43.7219 59.1444 43.7219C58.4776 43.7219 57.8059 43.2686 57.5873 42.6128L57.5875 42.6127L57.5829 42.6L55.8417 37.8117L55.6708 37.3418L55.2009 37.5127L32.0574 45.9285L31.5877 46.0993L31.7583 46.5691L36.474 59.5556L36.4768 59.5631L36.4798 59.5706C36.8009 60.3735 36.3867 61.3222 35.471 61.6705C35.2695 61.7369 35.0459 61.7869 34.9126 61.7869C34.2458 61.7869 33.5741 61.3336 33.3555 60.6778L33.3533 60.6711L33.3509 60.6645L21.6703 28.6698Z" fill="#A1D3E0" stroke="white"/>
</g>
<path d="M37.3422 0C30.4741 0 24.9163 5.5126 24.6904 12.6067C24.5096 19.1585 30.7904 27.7889 34.5408 32.3074C35.2185 33.1208 36.2578 33.6178 37.3422 33.6178C38.4267 33.6178 39.4208 33.1208 40.1437 32.3074C43.8941 27.7437 50.22 19.1585 49.9941 12.6067C49.7682 5.5126 44.2104 0 37.3422 0ZM37.3422 17.1704C34.857 17.1704 32.8237 15.1371 32.8237 12.6519C32.8237 10.1667 34.857 8.13334 37.3422 8.13334C39.8274 8.13334 41.8608 10.1667 41.8608 12.6519C41.8608 15.1371 39.8274 17.1704 37.3422 17.1704Z" fill="#005464"/>
</svg>
